<?xml version="1.0" encoding="UTF-8" standalone="no"?>
<svg
   width="128"
   height="128"
   version="1.0"
   id="svg38"
   sodipodi:docname="aurora-installer.svg"
   inkscape:version="1.4.3 (0d15f75042, 2025-12-25)"
   xmlns:inkscape="http://www.inkscape.org/namespaces/inkscape"
   xmlns:sodipodi="http://sodipodi.sourceforge.net/DTD/sodipodi-0.dtd"
   xmlns:xlink="http://www.w3.org/1999/xlink"
   xmlns="http://www.w3.org/2000/svg"
   xmlns:svg="http://www.w3.org/2000/svg"
   xmlns:rdf="http://www.w3.org/1999/02/22-rdf-syntax-ns#"
   xmlns:cc="http://creativecommons.org/ns#"
   xmlns:dc="http://purl.org/dc/elements/1.1/">
  <metadata
     id="metadata42">
    <rdf:RDF>
      <cc:Work
         rdf:about="">
        <dc:format>image/svg+xml</dc:format>
        <dc:type
           rdf:resource="http://purl.org/dc/dcmitype/StillImage" />
      </cc:Work>
    </rdf:RDF>
  </metadata>
  <sodipodi:namedview
     pagecolor="#ffffff"
     bordercolor="#666666"
     borderopacity="1"
     objecttolerance="10"
     gridtolerance="10"
     guidetolerance="10"
     inkscape:pageopacity="0"
     inkscape:pageshadow="2"
     inkscape:window-width="2560"
     inkscape:window-height="1368"
     id="namedview40"
     showgrid="false"
     inkscape:zoom="8.015625"
     inkscape:cx="63.937622"
     inkscape:cy="63.937622"
     inkscape:window-x="0"
     inkscape:window-y="0"
     inkscape:window-maximized="1"
     inkscape:current-layer="g36"
     inkscape:showpageshadow="2"
     inkscape:pagecheckerboard="0"
     inkscape:deskcolor="#d1d1d1" />
  <defs
     id="defs16">
    <linearGradient
       xlink:href="#a"
       id="b"
       gradientUnits="userSpaceOnUse"
       gradientTransform="matrix(.23214 0 0 .32895 -8.567 435.827)"
       x1="88.596"
       y1="-449.394"
       x2="536.596"
       y2="-449.394" />
    <linearGradient
       id="a">
      <stop
         offset="0"
         stop-color="#acabae"
         id="stop3" />
      <stop
         offset=".038"
         stop-color="#f7f7f7"
         id="stop5" />
      <stop
         offset=".077"
         stop-color="#deddda"
         id="stop7" />
      <stop
         offset=".923"
         stop-color="#b0afad"
         id="stop9" />
      <stop
         offset=".962"
         stop-color="#c0bfbc"
         id="stop11" />
      <stop
         offset="1"
         stop-color="#77767b"
         id="stop13" />
    </linearGradient>
    <radialGradient
       xlink:href="#linearGradient9"
       id="radialGradient23"
       gradientUnits="userSpaceOnUse"
       gradientTransform="matrix(3.4746727,1.1852685e-7,-0.02222008,1.0177279,-47.973353,116.22824)"
       cx="24.299227"
       cy="129.68373"
       fx="24.299227"
       fy="129.68373"
       r="51.055538" />
    <linearGradient
       id="linearGradient9">
      <stop
         offset="0"
         style="stop-color:#ffbe8f;stop-opacity:1;"
         id="stop5-3" />
      <stop
         offset="0.29142818"
         style="stop-color:#b64d5f;stop-opacity:1;"
         id="stop6" />
      <stop
         offset="0.54470932"
         style="stop-color:#6d4793;stop-opacity:1;"
         id="stop7-6" />
      <stop
         offset="0.7482971"
         style="stop-color:#4f5fb0;stop-opacity:1;"
         id="stop8" />
      <stop
         offset="1"
         style="stop-color:#4075bf;stop-opacity:1;"
         id="stop9-7" />
    </linearGradient>
  </defs>
  <g
     transform="translate(0 -172)"
     id="g36">
    <rect
       ry="8"
       rx="8"
       y="188"
       x="12"
       height="100"
       width="104"
       style="marker:none"
       fill="url(#b)"
       id="rect18" />
    <rect
       style="marker:none"
       width="104"
       height="100"
       x="12"
       y="184"
       rx="8"
       ry="8"
       fill="#fff"
       id="rect20" />
    <g
       transform="translate(-104 -365.5)"
       color="#000"
       id="g26">
      <rect
         ry="4"
         rx="4"
         y="625.5"
         x="128"
         height="8"
         width="80"
         style="marker:none"
         overflow="visible"
         fill="#e1dedb"
         id="rect22" />
      <rect
         ry="4"
         rx="4"
         y="625.5"
         x="128"
         height="8"
         width="48.125"
         style="marker:none;fill:#d56199;fill-opacity:1"
         overflow="visible"
         fill="#3584e4"
         id="rect24" />
    </g>
    <path
       id="path18"
       style="font-weight:596;font-size:31.4035px;font-family:'Red Hat Display';-inkscape-font-specification:'Red Hat Display weight=596';font-variation-settings:normal;letter-spacing:-1.2267px;display:inline;vector-effect:none;fill:url(#radialGradient23);fill-opacity:1;stroke:none;stroke-width:2.38692;stroke-linecap:butt;stroke-linejoin:miter;stroke-miterlimit:4;stroke-dasharray:none;stroke-dashoffset:0;stroke-opacity:1;-inkscape-stroke:none;stop-color:#000000"
       d="m 77.835439,196.23977 c -0.98175,-0.0326 -1.946099,0.38706 -2.592786,1.17593 l -41.665726,50.7953 12.07177,-4.52576 6.92884,-8.45486 c 2.76855,-0.69819 6.92704,-2.24615 11.88274,-4.46553 5.094682,-2.28164 10.399171,-4.99533 15.284447,-7.83137 1.245137,-0.72284 2.427252,-1.43258 3.553071,-2.129 2.99488,-1.8526 6.186655,-4.09717 8.854815,-6.55416 1.580587,-1.45548 3.006157,-3.01173 4.096937,-4.6302 1.03889,-1.54148 1.80481,-3.18587 2.07238,-4.87766 0.11676,-0.76251 0.15599,-1.48089 0.11595,-2.15359 -0.04,-0.6722 -0.15911,-1.29617 -0.35687,-1.86755 -0.19907,-0.57519 -0.47318,-1.08329 -0.80982,-1.52378 -0.33981,-0.44463 -0.7322,-0.80597 -1.15293,-1.09653 -0.85917,-0.59337 -1.83142,-0.88923 -2.747304,-1.03157 -0.986629,-0.15334 -1.999779,-0.1423 -2.909046,-0.0677 -1.571915,0.129 -3.066909,0.46957 -4.031067,0.70786 -0.460286,0.11377 -0.887576,0.22999 -1.270453,0.34108 -2.044662,0.59318 -2.393757,0.86202 -2.39721,0.89261 -3e-6,1.1e-4 -1e-5,5.2e-4 0,6.9e-4 v 1.7e-4 1.7e-4 c 0.01581,0.0503 0.562679,-0.0891 2.512029,-0.34558 0.388082,-0.0511 0.820304,-0.10111 1.280378,-0.14166 0.978109,-0.0862 2.439947,-0.14572 3.886472,0.0257 0.841683,0.0998 1.68227,0.2784 2.413227,0.57477 0.687881,0.2789 1.217534,0.6375 1.568664,1.06585 0.16691,0.20361 0.29004,0.41831 0.37807,0.64718 0.0864,0.22472 0.14418,0.47663 0.17031,0.76336 0.0261,0.28682 0.0221,0.62479 -0.0275,1.02276 -0.0499,0.40069 -0.1462,0.86403 -0.30543,1.39949 -0.29419,0.94833 -0.89715,1.99053 -1.827406,3.12018 -0.973866,1.18262 -2.250267,2.39317 -3.743908,3.60745 -2.432679,1.97763 -5.32397,3.8703 -8.121689,5.55753 v -16.78164 c -0.0012,-1.36123 -0.855272,-2.5754 -2.134186,-3.0338 -0.319762,-0.11455 -0.649502,-0.17544 -0.97675,-0.18632 z m -3.326367,12.22855 v 11.31136 c -4.02446,2.03398 -8.266952,3.90951 -12.364121,5.63628 -0.798284,0.33643 -1.572378,0.65965 -2.319614,0.97021 z m 6.437303,16.96162 c -1.72373,0.99759 -3.493625,1.97698 -5.287082,2.92867 l -1.150221,0.61087 v 14.71576 h 6.437303 z" />
  </g>
</svg>
